<?xml version="1.0" encoding="UTF-8"?>
<!DOCTYPE svg PUBLIC "-//W3C//DTD SVG 1.1//EN" "http://www.w3.org/Graphics/SVG/1.1/DTD/svg11.dtd">
<!-- Creator: CorelDRAW 2019 (64-Bit) -->
<svg xmlns="http://www.w3.org/2000/svg" xml:space="preserve" width="61.5218mm" height="32.4825mm" version="1.1" style="shape-rendering:geometricPrecision; text-rendering:geometricPrecision; image-rendering:optimizeQuality; fill-rule:evenodd; clip-rule:evenodd"
viewBox="0 0 6152.18 3248.25"
 xmlns:xlink="http://www.w3.org/1999/xlink">
 <defs>
  <style type="text/css">
   <![CDATA[
    .fil3 {fill:white}
    .fil4 {fill:#0FF1FF;fill-rule:nonzero}
    .fil1 {fill:url(#id0)}
    .fil0 {fill:url(#id1)}
    .fil2 {fill:url(#id2)}
   ]]>
  </style>
  <linearGradient id="id0" gradientUnits="userSpaceOnUse" x1="972.83" y1="40.15" x2="1825.49" y2="2169.87">
   <stop offset="0" style="stop-opacity:1; stop-color:#0FF1FF"/>
   <stop offset="1" style="stop-opacity:1; stop-color:#A060FF"/>
  </linearGradient>
  <linearGradient id="id1" gradientUnits="userSpaceOnUse" x1="1596.89" y1="961.96" x2="-195.57" y2="2276.76">
   <stop offset="0" style="stop-opacity:1; stop-color:#3046AB"/>
   <stop offset="1" style="stop-opacity:1; stop-color:#39BFE4"/>
  </linearGradient>
  <linearGradient id="id2" gradientUnits="userSpaceOnUse" x1="2589.25" y1="10.16" x2="2382.17" y2="3241.61">
   <stop offset="0" style="stop-opacity:1; stop-color:#F53D6F"/>
   <stop offset="1" style="stop-opacity:1; stop-color:#EB8636"/>
  </linearGradient>
 </defs>
 <g id="Слой_x0020_1">
  <metadata id="CorelCorpID_0Corel-Layer"/>
  <polygon class="fil0" points="1.17,0 1.17,2294.23 739.9,3238.6 1400.26,2202.83 1026.63,1614.54 616.11,2294.23 621.35,976.45 "/>
  <polygon class="fil1" points="2798.18,3.55 2058.01,3.55 1399.1,1024.47 737.55,3.55 -0,3.55 1399.1,2206.36 "/>
  <polygon class="fil2" points="2180.63,2280.1 2173.07,987.8 2798.18,3.55 2774.87,3248.25 "/>
  <path class="fil3" d="M3749.58 1983.92l274.68 0 0 51.34 -343.98 0 0.26 -422.92 68.52 -60.27 0.52 182.83 274.68 0 0 51.34 -274.68 0 0 197.68zm-528.82 51.34l-66.75 0 0 -413.3 0.28 -9.62 66.29 -59.9 0.18 182.46 277.24 0 0 51.34 -277.24 0 0 249.02zm1891.18 -498.8l-68.53 0.81 0 497.99 -69.31 0 0 -498.01 -97.35 -0.05 54.35 -50.63 235.31 -0.65 -54.47 50.54zm-493 -0.13l-171.1 0.92c-32.97,-0.01 -42.07,0.74 -68.82,18.46 -58.29,38.59 -54.07,133.45 10.54,165.58 47.34,23.57 94.68,3.57 141.99,32.58 38.4,23.55 62.63,56.45 71.41,100.59 9.52,47.78 -4.7,101.02 -37.66,133.98 -13.93,13.92 -30.68,26.63 -49.87,34.83 -26.75,11.41 -44.66,11.99 -75.29,11.99 -58.2,0 -116.39,0 -174.57,0l0 -51.34c58.89,0 121.39,2.06 179.8,0.11 62.12,-2.06 125.37,-79.56 71.84,-156.75 -33.11,-47.76 -101.98,-36.64 -135.59,-44.13 -20.24,-4.5 -45.26,-17.29 -60.24,-32.17 -76.08,-75.54 -67.81,-174.58 17.6,-237.88 48.54,-35.99 91.98,-27.19 152.5,-27.19l182.04 0.66 -54.58 49.76zm-566.43 0.92l-284.73 -0.02c6.78,-10.02 48.83,-48.61 58.81,-51.32l284.74 0.01c-5.79,9.55 -49.39,48.73 -58.82,51.33zm-521.98 -0.89l-291.59 0.88 54.53 -50.48 291.61 -0.85 -54.55 50.45zm1615.56 -680.88c0,-14.6 19.3,-26.65 33.87,-38.02 11.86,-9.25 21.45,-22.03 35.44,-31.29l0 498.03 -69.31 0 0 -428.72zm-1139.14 -9.61l65.74 -60.1c0.36,100.51 0.37,200.64 0.36,300.75 -0.02,43.78 5.99,84.26 32.86,118.59 24.59,31.37 73.21,41.66 111.15,35.7 113.19,-17.74 99.85,-130.67 99.85,-203.08 0,-100.95 0,-201.94 0,-302.9l69.31 0c0,115.53 0,231.04 0,346.55 0,113.39 -18.53,187.29 -137.55,209 -93.62,17.1 -205.37,-4.03 -232.59,-105.82 -16.13,-60.31 -9.78,-184.26 -9.78,-252.06 0,-25.43 -2.15,-62.87 0.65,-86.63zm-870.23 384.2l-0.65 -88.99 395.31 -357.48 0 228.47 266.97 -231.03 0 503.16 -77.01 -123.1 0 -190.09 -147.33 129.9 -147.88 129.37 0 -259.27 -289.41 259.06zm2600.69 1.89c4.58,13.77 1.67,36.89 1.67,52.24 -58.99,0 -132.87,-18.13 -182.27,-51.35 -90.45,-60.84 -142.07,-149.23 -125.26,-263.9 19.57,-133.39 148.28,-224.85 276.71,-234.16l120.47 0.7c-58.09,44.98 -36.44,50.77 -81.94,50.68 -104.06,-0.26 -213.67,65.27 -240.32,160.16 -20.26,72.15 -6.05,149.49 47.14,202.44 44.12,43.92 68.86,56.84 126.07,74.17 19.63,5.93 50.78,6.71 57.73,9.02zm-1174.06 52.24l0 -51.35 179.55 -0.16c114.24,-12.7 122.79,-166.31 13.56,-192.96 -26.96,-6.56 -53.05,-2.44 -80.71,-9.13 -91.72,-22.15 -171.74,-167.78 -39.83,-269.42 47.53,-36.59 94.27,-26.35 153.35,-26.35l179.46 0.66c-6.14,9.04 -36.98,36.66 -46.57,44.96 -13.41,11.59 -67.01,5.72 -86.69,5.72 -30.82,0 -61.61,0.01 -92.41,0 -29.36,-0.02 -50.37,2.14 -72.57,22.4 -16.25,14.84 -31.23,34.55 -34.79,57.64 -8.23,53.15 22.54,97.26 72.42,111.49 28.98,8.25 55.22,3.65 84.26,10.72 101.04,24.52 143.54,149.43 81.62,234.17 -28.11,38.46 -74.06,61.87 -123.23,61.63 -62.43,-0.31 -124.96,-0.02 -187.42,-0.02zm-1417.03 -1144.2l0.26 -9.62 66.21 -59.99 0.26 482.91 -0.8 0 -65.93 -91.72 0 -321.58zm2641.54 164.28c0,29.29 -3.46,180.52 1.7,195.98 16.35,5.47 238.64,1.7 275.55,1.7 0,15.43 3.07,35.41 -1.69,49.64 -18.38,6.16 -297.99,1.7 -342.3,1.7l0 -421.02c1.23,-6.6 62.58,-58.85 66.74,-61.6 0,27.47 -3.26,165.72 1.7,180.59 16.35,5.45 238.64,1.66 275.55,1.66 0,15.25 3.3,35.91 -1.9,49.68 -16.75,6.12 -237.48,1.67 -275.35,1.67zm-1224.51 249.02l-66.73 0 0.26 -446.03 94.33 -85.79c14.48,9.75 156.15,140.53 178.11,161.57l66.65 59.15c12.23,9.55 100.42,97.33 112.45,100.58l0 -341.4 66.75 0 0 495.44c-11.45,-7.56 -45.24,-38.66 -55.83,-49.42l-83.39 -75.77c-50.68,-48.58 -116.05,-102.97 -169.53,-151.37 -24.8,-22.44 -132.1,-123.51 -143.07,-126.46l0 459.5zm-835.46 -53.29l-1.39 -87.25 253.48 -229.77c8.46,-8.57 21.49,-19.89 30.75,-28.29l79.59 -71.86c16.92,-16.79 57.46,-49.57 79.59,-71.89 14.29,-14.39 28.65,-9.57 49.45,-9.57 20.55,0 41.07,0 61.62,0l0 551.92 -69.31 0 0 -89.85 -225.69 -0.02c11.49,-14.33 23.02,-21.81 35.08,-33.98 22.08,-22.27 15.4,-19.94 49.41,-19.91 47.06,0.03 94.12,0 141.2,0l0 -343.99 -483.78 434.46zm-439.19 -497.84c8.98,3.8 54.42,-2.71 104.07,22.29 90.54,45.57 150.16,114.51 168.43,216.64 22.94,128.25 -77.21,274.47 -201.81,304.5 0,-68.72 -3.88,-54.23 14.39,-65.18 4.18,-2.51 11.32,-7.2 15.43,-10.25 128.56,-95.27 149.97,-265.74 10.56,-373.11 -18.75,-14.45 -48.14,-29.02 -70.68,-34.62 -56.91,-14.11 -52.67,-2.73 -97.62,-7.83l57.23 -52.44zm2802.09 53.11l-284.73 0c6.91,-10.22 51.47,-51.21 61.39,-53.9l284.73 0c-6.12,10.06 -51.55,51.22 -61.39,53.9zm-526.26 0c-42.7,0 -66.48,0.3 -104.93,13.16 -31.86,10.66 -52.25,20.76 -79.46,41.17 -46.34,34.79 -84.53,94.74 -85.26,153.52 -0.96,78.57 17.95,116.36 70.04,168.88 40.63,41 113.97,67.39 171.37,67.39l0 53.9 -69.32 -7.69c-21.09,-3.14 -42.04,-9.9 -61.95,-17.64 -69.81,-27.16 -133.07,-85.52 -161.38,-154.38 -49.18,-119.59 3.45,-259.02 115.54,-323.41 39.35,-22.61 102.91,-46.33 148.81,-46.3 39.97,0.05 68.1,-7.32 117.93,-1.87 -5.87,8.63 -52.99,50.99 -61.39,53.27z"/>
  <path class="fil4" d="M3186.43 2733.14m91.12 -410.31c31.92,0 55.13,9.28 69.64,27.86 14.51,18.57 22.06,43.52 22.06,74.86 0,20.31 -3.49,38.89 -9.87,55.14 -6.96,16.83 -15.67,31.92 -25.54,45.84 -10.44,14.51 -21.47,27.86 -33.08,40.05 -12.18,12.19 -23.21,24.95 -33.08,37.14 -10.44,12.19 -19.15,24.96 -26.11,38.3 -6.97,13.35 -10.45,27.86 -10.45,43.53l0 6.38 133.48 0 0 41.21 -178.17 0 0 -34.82c0,-21.47 3.49,-40.63 10.45,-57.46 6.38,-16.83 15.09,-31.92 25.54,-45.84 9.86,-13.35 20.89,-26.7 33.08,-38.89 11.6,-12.19 22.63,-24.37 33.08,-37.14 9.86,-12.77 18.57,-26.7 25.53,-41.21 6.39,-14.5 9.87,-31.34 9.87,-50.49 0,-20.89 -3.48,-36.56 -11.03,-47.59 -7.54,-11.02 -19.73,-16.25 -36.56,-16.25 -16.83,0 -28.44,5.23 -35.98,16.25 -7.55,11.03 -11.61,25.54 -11.61,43.53l0 35.98 -42.37 0 0 -33.08c0,-31.34 7.55,-56.29 22.06,-75.44 14.51,-18.58 37.72,-27.86 69.06,-27.86z"/>
  <path class="fil4" d="M3759.02 2733.14m0 -308.17c0,-31.34 7.55,-56.29 23.22,-74.86 15.09,-18 38.3,-27.28 69.64,-27.28 31.34,0 54.55,9.28 70.22,27.28 15.67,18.57 23.22,43.52 23.22,74.86l0 209.51c0,31.34 -7.55,56.29 -23.22,74.87 -15.67,18.57 -38.88,27.85 -70.22,27.85 -31.34,0 -54.55,-9.28 -69.64,-27.85 -15.67,-18.58 -23.22,-43.53 -23.22,-74.87l0 -209.51zm44.69 212.41c0,18.57 4.06,33.08 12.19,42.95 7.54,10.44 19.73,15.67 35.98,15.67 16.83,0 29.02,-5.23 36.56,-15.67 7.55,-9.87 11.61,-24.38 11.61,-42.95l0 -214.73c0,-18.57 -4.06,-33.08 -11.61,-43.53 -7.54,-10.44 -19.73,-15.67 -36.56,-15.67 -16.25,0 -28.44,5.23 -35.98,15.67 -8.13,10.45 -12.19,24.96 -12.19,43.53l0 214.73z"/>
  <path class="fil4" d="M4366.41 2733.14m56.29 -332.54c-7.54,4.64 -16.25,8.7 -25.53,11.6 -9.87,2.91 -19.73,5.23 -30.76,5.81l0 -37.15c11.03,-0.58 20.31,-2.32 27.86,-5.22 7.54,-2.9 14.51,-6.96 19.73,-12.19 5.22,-4.64 9.29,-10.44 12.77,-16.83 3.48,-6.38 6.38,-12.76 9.28,-19.73l31.34 0 0 406.25 -44.69 0 0 -332.54z"/>
  <path class="fil4" d="M4883.27 2733.14m92.86 -410.31c31.34,0 54.55,9.28 70.22,27.28 15.67,18.57 23.22,43.52 23.22,74.86l0 207.19c0,31.92 -7.55,57.45 -22.64,76.61 -15.09,19.15 -38.88,28.43 -71.38,28.43 -31.34,0 -54.56,-9.28 -69.06,-27.85 -15.09,-18 -22.64,-42.95 -22.64,-74.29l0 -7.54 42.37 0 0 10.44c0,18.57 4.06,33.08 12.19,42.95 7.54,9.86 19.73,15.09 35.98,15.09 17.41,0 30.18,-5.23 38.3,-16.25 7.55,-11.03 11.61,-27.28 11.61,-48.75l0 -91.12c-11.03,28.44 -33.08,42.95 -65.58,42.95 -26.12,0 -45.27,-8.71 -57.46,-26.12 -12.18,-16.83 -17.99,-40.04 -17.99,-69.64l0 -62.1c0,-31.34 7.55,-56.29 23.22,-74.86 15.09,-18 38.3,-27.28 69.64,-27.28zm0 41.2c-16.25,0 -28.44,5.23 -35.98,15.09 -8.13,10.45 -12.19,24.96 -12.19,43.53l0 60.94c0,18.57 4.06,33.08 12.19,42.94 7.54,10.45 19.73,15.67 35.98,15.67 16.83,0 29.02,-5.22 36.56,-15.67 7.55,-9.86 11.61,-24.37 11.61,-42.94l0 -60.94c0,-18.57 -4.06,-33.08 -11.61,-43.53 -7.54,-9.86 -19.73,-15.09 -36.56,-15.09z"/>
 </g>
</svg>
