<?xml version="1.0" encoding="UTF-8"?>
<!DOCTYPE svg PUBLIC "-//W3C//DTD SVG 1.1//EN" "http://www.w3.org/Graphics/SVG/1.1/DTD/svg11.dtd">
<!-- Creator: CorelDRAW 2019 (64-Bit) -->
<svg xmlns="http://www.w3.org/2000/svg" xml:space="preserve" width="180.607mm" height="126.705mm" version="1.1" style="shape-rendering:geometricPrecision; text-rendering:geometricPrecision; image-rendering:optimizeQuality; fill-rule:evenodd; clip-rule:evenodd"
viewBox="0 0 17892.09 12552.2"
 xmlns:xlink="http://www.w3.org/1999/xlink">
 <defs>
  <style type="text/css">
   <![CDATA[
    .fil4 {fill:#FEFEFE}
    .fil1 {fill:#2B2A29}
    .fil0 {fill:#E31E25}
    .fil5 {fill:#FEFEFE;fill-rule:nonzero}
    .fil3 {fill:#2B2A29;fill-rule:nonzero}
    .fil2 {fill:white;fill-rule:nonzero}
   ]]>
  </style>
 </defs>
 <g id="Слой_x0020_1">
  <metadata id="CorelCorpID_0Corel-Layer"/>
  <polygon class="fil0" points="17892.09,9119.58 1867,9119.58 3610.73,6032.51 17892.09,6032.51 "/>
  <path class="fil1" d="M482.67 12551.71c-149.83,-29.14 575.76,-2199.59 959.48,-3189.62 1427.71,-3683.64 3750.67,-6438.44 7082.71,-9189.74 503.86,-416.08 1089.88,-64.87 676.84,903.19 -702.98,1647.61 -1096.95,3029.86 -1238.64,4664.87 -79.61,918.31 -59.18,2209.54 10.17,3379.17 8.43,194.22 -36.59,102.24 -55.59,34.27 -329.86,-1181.07 -498.12,-2479.16 -515.54,-3378.54 -30,-1547.89 326.05,-2783.37 805.22,-4066.91 -3348.21,3311.29 -4507.27,4364.56 -6301.56,7869.54 -425.91,832.03 -1231.05,3011.19 -1423.1,2973.78z"/>
  <path class="fil1" d="M345.13 5465.23c3636.94,-931.31 6970.9,-1109.75 10607.3,-51.17 -4205.27,-56.78 -6134.97,-283.38 -10297.32,1001.84 -262.54,85.61 -544.73,-57.8 -630.34,-320.34 -85.61,-262.55 57.81,-544.72 320.35,-630.33z"/>
  <path class="fil2" d="M8835.38 7503.25l0 -1291.01 315.56 0c296.5,0 444.7,123.11 444.7,369.32 0,127.9 -41.84,223.56 -125.55,286.91 -74.06,57.42 -176.86,86.08 -308.43,86.08l-200.82 0 0 548.71 -125.46 0zm125.46 -1179.84l0 519.96 190.1 0c205.62,0 308.42,-85.46 308.42,-256.4 0,-175.73 -106.37,-263.56 -319.21,-263.56l-179.31 0zm896.59 225.91l0 953.93 -104.02 0 0 -1045.41 259.99 0c242.72,0 363.99,99.85 363.99,299.45 0,98.02 -32.83,171.29 -98.62,220.25 -58.54,44.25 -138.35,66.38 -239.94,66.38l344.24 459.32 -123.99 0 -389.08 -536.17c135.04,0 221.73,-5.31 259.97,-16.12 90.87,-25.08 136.28,-87.82 136.28,-188.28 0,-80.07 -24.49,-136.87 -73.55,-170.32 -40.59,-28.66 -103.32,-43.04 -188.27,-43.04l-146.99 0zm1696.33 423.17c0,154.21 -52.61,284.55 -157.77,390.93 -105.25,106.38 -234.9,159.53 -389.1,159.53 -154.22,0 -282.73,-52.89 -385.53,-158.65 -102.81,-105.77 -154.22,-236.37 -154.22,-391.8 0,-145.85 53.75,-271.66 161.35,-377.42 107.61,-105.86 234.29,-158.74 380.13,-158.74 148.28,0 276.2,52.62 383.69,157.78 107.6,105.25 161.45,231.31 161.45,378.38zm-104.02 0.87c0,-121.02 -43.66,-225.05 -130.6,-311.65 -86.95,-87.03 -190.99,-130.33 -312.26,-130.33 -117.79,0 -219.74,44.25 -306.08,133.04 -86.35,88.44 -129.72,192.11 -129.72,310.77 0,127.03 42.16,234.89 126.15,323.32 83.98,88.78 189.48,133.04 316.77,133.04 124.95,0 228.62,-44.87 311.4,-134.78 82.76,-89.66 124.33,-197.6 124.33,-323.4zm822.97 529.89l-94.97 0 -369.41 -923.43 0 0c-1.21,37.02 -1.82,55.58 -1.82,55.58l1.82 867.85 -104.02 0 0 -1045.41 157.52 0 362.18 914.81 2.44 0 364.02 -914.81 155.69 0 0 1045.41 -104.04 0 0 -867.85c0,0 2.36,-18.56 7.14,-55.58l-7.14 0 -369.41 923.43zm1710.7 -530.76c0,154.21 -52.63,284.55 -157.79,390.93 -105.23,106.38 -234.88,159.53 -389.08,159.53 -154.21,0 -282.72,-52.89 -385.53,-158.65 -102.81,-105.77 -154.21,-236.37 -154.21,-391.8 0,-145.85 53.74,-271.66 161.34,-377.42 107.61,-105.86 234.28,-158.74 380.14,-158.74 148.28,0 276.19,52.62 383.68,157.78 107.6,105.25 161.45,231.31 161.45,378.38zm-104.02 0.87c0,-121.02 -43.66,-225.05 -130.6,-311.65 -86.96,-87.03 -190.98,-130.33 -312.26,-130.33 -117.79,0 -219.74,44.25 -306.08,133.04 -86.34,88.44 -129.72,192.11 -129.72,310.77 0,127.03 42.16,234.89 126.14,323.32 83.99,88.78 189.49,133.04 316.79,133.04 124.92,0 228.62,-44.87 311.38,-134.78 82.78,-89.66 124.34,-197.6 124.34,-323.4zm480.49 529.89l-103.94 0 0 -953.93 -211.64 0 0 -91.48 530.76 0 0 91.48 -215.18 0 0 953.93zm437.54 0l-100.37 0 0 -1045.41 100.37 0 0 1045.41zm1242.65 -530.76c0,154.21 -52.61,284.55 -157.77,390.93 -105.25,106.38 -234.9,159.53 -389.1,159.53 -154.22,0 -282.73,-52.89 -385.54,-158.65 -102.8,-105.77 -154.21,-236.37 -154.21,-391.8 0,-145.85 53.75,-271.66 161.35,-377.42 107.61,-105.86 234.29,-158.74 380.13,-158.74 148.28,0 276.2,52.62 383.69,157.78 107.61,105.25 161.45,231.31 161.45,378.38zm-104.02 0.87c0,-121.02 -43.66,-225.05 -130.6,-311.65 -86.95,-87.03 -190.99,-130.33 -312.26,-130.33 -117.79,0 -219.74,44.25 -306.08,133.04 -86.34,88.44 -129.73,192.11 -129.73,310.77 0,127.03 42.17,234.89 126.16,323.32 83.99,88.78 189.5,133.04 316.77,133.04 124.95,0 228.62,-44.87 311.4,-134.78 82.76,-89.66 124.33,-197.6 124.33,-323.4zm254.57 529.89l0 -1045.41 128.25 0 574.33 911.23c0,-15.59 0,-38.85 0.35,-69.96 0,-29.88 0,-52.61 0,-68.13l0 -773.14 95.04 0 0 1045.41 -127.38 0 -571.97 -907.31c0,26.31 0,63.33 0,111.16l0 796.15 -98.62 0zm-6394.17 1416.82l-130.86 0 -161.09 -419.59 -524.23 0 -161.08 419.59 -130.88 0 502.11 -1291.01 103.94 0 502.09 1291.01zm-556.11 -1097.42l-218.51 566.66 441.12 0 -218.43 -566.66 -4.18 0zm1605.09 313.82l-127.63 0c-98.02,-121.89 -215.46,-182.88 -352.08,-182.88 -121.02,0 -224.09,42.43 -308.94,127.29 -85.22,84.86 -127.65,188.28 -127.65,310.25 0,126.69 41.21,233.41 123.99,320.01 82.5,86.68 186.8,129.99 312.59,129.99 99.58,0 187.15,-30.75 263.3,-92.26 75.96,-61.6 125.55,-140.79 148.28,-237.59l-453.66 0 0 -91.48 579.11 0c-9.49,149.41 -65.08,273.48 -166.75,372.02 -101.6,98.62 -227.14,147.94 -376.55,147.94 -155.35,0 -283.25,-52.53 -383.71,-157.78 -100.35,-105.16 -150.62,-235.5 -150.62,-390.85 0,-153.08 52.61,-280.97 157.78,-383.78 105.23,-102.8 234.98,-154.21 389.08,-154.21 212.85,0 370.63,94.44 473.44,283.33zm753.11 783.6l-548.71 0 0 -1045.41 548.71 0 0 91.49 -444.7 0 0 369.4 392.68 0 0 91.4 -392.68 0 0 401.65 444.7 0 0 91.48zm186.44 0l0 -1045.41 128.24 0 574.33 911.24c0,-15.6 0,-38.86 0.35,-69.96 0,-29.89 0,-52.62 0,-68.14l0 -773.14 95.06 0 0 1045.41 -127.38 0 -571.97 -907.31c0,26.31 0,63.33 0,111.17l0 796.14 -98.63 0zm1959.86 -776.45l-123.97 0c-94.45,-125.46 -211.89,-188.28 -352.08,-188.28 -117.43,0 -218.41,43.04 -302.75,129.12 -84.51,86.08 -126.69,188.28 -126.69,306.67 0,123.11 40.95,228.88 123.11,317.31 81.9,88.52 184.1,132.69 306.32,132.69 147.33,0 264.78,-59.77 352.08,-179.3l123.97 0c-102.81,185.31 -258.76,277.93 -467.94,277.93 -156.64,0 -286.03,-52.28 -388.22,-156.82 -102.2,-104.64 -153.35,-235.85 -153.35,-393.63 0,-147.06 52.37,-273.14 156.91,-378.38 104.65,-105.16 230.46,-157.78 377.43,-157.78 213.97,0 372.36,96.89 475.17,290.47zm450.1 358.69l0 417.76 -100.38 0 0 -417.76 -338.92 -627.65 116.22 0 272.88 509.6 274.62 -509.6 116.3 0 -340.73 627.65z"/>
  <path class="fil3" d="M10061.84 2792.51c89.74,0 163.36,30.49 220.77,91.57 57.51,60.99 86.27,140.01 86.27,236.98 0,193.85 -111.36,398.6 -333.95,614.05l-129.29 -102.37c50.27,-111.35 75.35,-192.11 75.35,-242.39 0,-96.97 -53.83,-145.41 -161.53,-145.41 -107.77,0 -210.06,68.22 -307.02,204.66 -96.98,136.43 -211.01,347.45 -342.05,632.87 -131.05,285.51 -230.71,487.47 -298.93,605.96l-307.04 -134.61c197.52,-448.87 310.61,-712.76 339.36,-791.79 96.97,-280.11 145.41,-635.57 145.41,-1066.49l301.62 -80.86c-10.79,233.41 -26.91,413.93 -48.43,541.4 -21.61,127.46 -73.62,334.81 -156.22,622.07 362.69,-657.1 667.9,-985.64 915.68,-985.64zm1404.02 1303.48l118.47 134.6c-89.72,140.1 -198.38,249.62 -325.83,328.63 -127.56,78.94 -255.89,118.49 -385.18,118.49 -129.21,0 -231.59,-36.85 -307.03,-110.48 -75.37,-73.62 -113.09,-175.03 -113.09,-304.32 0,-301.63 113.09,-718.17 339.34,-1249.62 -183.12,28.75 -366.26,71.87 -549.4,129.29l-37.71 -210.06 -5.41 -5.4c179.57,-75.37 414.8,-136.44 705.62,-183.13 28.75,-53.84 93.4,-184.88 193.93,-393.19 201.09,-412.97 344.77,-680.45 430.93,-802.51l231.57 91.57c-35.88,78.94 -98.71,210.93 -188.53,395.9 -89.74,184.88 -190.28,394.06 -301.62,627.47 161.61,-10.8 289.08,-16.21 382.48,-16.21 93.3,0 165.19,14.37 215.46,43.13l0 231.57c-50.27,-10.71 -123.02,-16.12 -218.15,-16.12 -95.24,0 -264.86,16.12 -509.07,48.44 -211.81,474.04 -317.76,818.72 -317.76,1034.17 0,82.59 26.06,150.81 78.06,204.74 52.11,53.84 122.16,80.76 210.06,80.76 88,0 205.61,-59.24 352.86,-177.73z"/>
  <path class="fil3" d="M14436.01 4011.56l113.17 91.57c-61.07,150.9 -157.17,278.36 -288.2,382.48 -131.03,104.11 -249.53,156.21 -355.46,156.21 -105.95,0 -189.42,-36.85 -250.48,-110.47 -61.07,-73.62 -91.57,-169.63 -91.57,-288.12 0,-118.48 19.77,-271.13 59.23,-457.84 -168.75,265.73 -350.14,473.95 -544,624.77 -193.94,150.81 -357.3,226.26 -490.16,226.26 -201.08,0 -301.63,-143.67 -301.63,-430.92 0,-244.21 82.6,-556.55 247.78,-937.2 165.19,-380.64 285.42,-601.5 360.87,-662.5l258.5 113.09c-147.14,236.98 -258.5,470.39 -333.95,700.22 -75.36,229.83 -113.07,383.35 -113.07,460.54 0,77.19 24.22,139.14 72.75,185.83 48.42,46.62 104.97,69.96 169.62,69.96 143.67,0 322.27,-131.9 535.9,-395.89 213.72,-263.9 431.88,-657.97 654.48,-1182.28l274.7 123.89c-7.14,28.75 -88.86,236.98 -245.07,624.85 -156.23,387.8 -234.29,620.33 -234.29,697.53 0,77.18 17,135.56 51.16,175.03 34.15,39.47 68.22,59.24 102.37,59.24 34.06,0 60.11,-1.83 78.05,-5.4 17.95,-3.58 35.9,-10.72 53.84,-21.52 17.96,-10.81 33.3,-19.78 45.83,-26.93 12.54,-7.23 27.8,-19.77 45.75,-37.72l43.11 -37.72c7.16,-10.72 20.66,-27.8 40.43,-51.14 19.7,-23.35 33.2,-38.6 40.34,-45.83zm1808.01 193.93l-5.41 226.27c-82.58,3.57 -195.68,7.14 -339.34,10.71 -143.58,3.67 -243.25,6.28 -298.91,8.1 -55.69,1.83 -131.92,6.28 -228.89,13.51 -165.18,10.71 -317.83,32.32 -457.83,64.55 -176,39.56 -271.14,59.33 -285.52,59.33 -68.22,0 -137.31,-41.29 -207.36,-123.88 -70.04,-82.6 -104.97,-163.45 -104.97,-242.39 0,-150.81 538.6,-605.08 1615.8,-1362.8 -46.61,-3.58 -153.52,-5.32 -320.44,-5.32 -167.03,0 -456.96,35.89 -869.86,107.69l-32.33 -183.13c244.13,-147.24 700.22,-220.86 1368.12,-220.86 140.01,0 239.69,10.8 298.92,32.33 59.25,21.52 88.88,70.04 88.88,145.41 0,82.59 -46.71,158.04 -140.01,226.26 -18.03,14.37 -47.67,34.16 -88.96,59.25 -41.29,25.17 -115.78,75.45 -223.47,150.81 -107.77,75.45 -216.33,153.51 -325.93,234.27 -109.52,80.86 -248.65,202.05 -417.41,363.57 -168.76,161.62 -330.39,339.35 -484.76,533.29 495.55,-79.03 830.39,-118.49 1004.54,-118.49 174.16,0 325.84,7.14 455.13,21.52z"/>
  <polygon class="fil0" points="17892.09,9119.58 1867,9119.58 3610.73,6032.51 17892.09,6032.51 "/>
  <path class="fil4" d="M482.67 12551.71c-149.83,-29.14 575.76,-2199.59 959.48,-3189.62 1427.71,-3683.64 3750.67,-6438.44 7082.71,-9189.74 503.86,-416.08 1089.88,-64.87 676.84,903.19 -702.98,1647.61 -1096.95,3029.86 -1238.64,4664.87 -79.61,918.31 -59.18,2209.54 10.17,3379.17 8.43,194.22 -36.59,102.24 -55.59,34.27 -329.86,-1181.07 -498.12,-2479.16 -515.54,-3378.54 -30,-1547.89 326.05,-2783.37 805.22,-4066.91 -3348.21,3311.29 -4507.27,4364.56 -6301.56,7869.54 -425.91,832.03 -1231.05,3011.19 -1423.1,2973.78z"/>
  <path class="fil4" d="M345.13 5465.23c3636.94,-931.31 6970.9,-1109.75 10607.3,-51.17 -4205.27,-56.78 -6134.97,-283.38 -10297.32,1001.84 -262.54,85.61 -544.73,-57.8 -630.34,-320.34 -85.61,-262.55 57.81,-544.72 320.35,-630.33z"/>
  <path class="fil2" d="M8835.38 7503.25l0 -1291.01 315.56 0c296.5,0 444.7,123.11 444.7,369.32 0,127.9 -41.84,223.56 -125.55,286.91 -74.06,57.42 -176.86,86.08 -308.43,86.08l-200.82 0 0 548.71 -125.46 0zm125.46 -1179.84l0 519.96 190.1 0c205.62,0 308.42,-85.46 308.42,-256.4 0,-175.73 -106.37,-263.56 -319.21,-263.56l-179.31 0zm896.59 225.91l0 953.93 -104.02 0 0 -1045.41 259.99 0c242.72,0 363.99,99.85 363.99,299.45 0,98.02 -32.83,171.29 -98.62,220.25 -58.54,44.25 -138.35,66.38 -239.94,66.38l344.24 459.32 -123.99 0 -389.08 -536.17c135.04,0 221.73,-5.31 259.97,-16.12 90.87,-25.08 136.28,-87.82 136.28,-188.28 0,-80.07 -24.49,-136.87 -73.55,-170.32 -40.59,-28.66 -103.32,-43.04 -188.27,-43.04l-146.99 0zm1696.33 423.17c0,154.21 -52.61,284.55 -157.77,390.93 -207.73,209.96 -567.49,213.98 -774.63,0.87 -102.81,-105.77 -154.22,-236.37 -154.22,-391.8 0,-145.85 53.75,-271.66 161.35,-377.42 107.61,-105.86 234.29,-158.74 380.13,-158.74 148.28,0 276.2,52.62 383.69,157.78 107.6,105.25 161.45,231.31 161.45,378.38zm-104.02 0.87c0,-121.02 -43.66,-225.05 -130.6,-311.65 -86.95,-87.03 -190.99,-130.33 -312.26,-130.33 -117.79,0 -219.74,44.25 -306.08,133.04 -86.35,88.44 -129.72,192.11 -129.72,310.77 0,127.03 42.16,234.89 126.15,323.32 83.98,88.78 189.48,133.04 316.77,133.04 124.95,0 228.62,-44.87 311.4,-134.78 82.76,-89.66 124.33,-197.6 124.33,-323.4zm822.97 529.89l-94.97 0 -369.41 -923.43 0 0c-1.21,37.02 -1.82,55.58 -1.82,55.58l1.82 867.85 -104.02 0 0 -1045.41 157.52 0 362.18 914.81 2.44 0 364.02 -914.81 155.69 0 0 1045.41 -104.04 0 0 -867.85c0,0 2.36,-18.56 7.14,-55.58l-7.14 0 -369.41 923.43zm1710.7 -530.76c0,154.21 -52.63,284.55 -157.79,390.93 -105.23,106.38 -234.88,159.53 -389.08,159.53 -154.21,0 -282.72,-52.89 -385.53,-158.65 -102.81,-105.77 -154.21,-236.37 -154.21,-391.8 0,-145.85 53.74,-271.66 161.34,-377.42 107.61,-105.86 234.28,-158.74 380.14,-158.74 148.28,0 276.19,52.62 383.68,157.78 107.6,105.25 161.45,231.31 161.45,378.38zm-104.02 0.87c0,-121.02 -43.66,-225.05 -130.6,-311.65 -86.96,-87.03 -190.98,-130.33 -312.26,-130.33 -117.79,0 -219.74,44.25 -306.08,133.04 -86.34,88.44 -129.72,192.11 -129.72,310.77 0,127.03 42.16,234.89 126.14,323.32 83.99,88.78 189.49,133.04 316.79,133.04 124.92,0 228.62,-44.87 311.38,-134.78 82.78,-89.66 124.34,-197.6 124.34,-323.4zm480.49 529.89l-103.94 0 0 -953.93 -211.64 0 0 -91.48 530.76 0 0 91.48 -215.18 0 0 953.93zm437.54 0l-100.37 0 0 -1045.41 100.37 0 0 1045.41zm1242.65 -530.76c0,154.21 -52.61,284.55 -157.77,390.93 -105.25,106.38 -234.9,159.53 -389.1,159.53 -154.22,0 -282.73,-52.89 -385.54,-158.65 -102.8,-105.77 -154.21,-236.37 -154.21,-391.8 0,-145.85 53.75,-271.66 161.35,-377.42 107.61,-105.86 234.29,-158.74 380.13,-158.74 148.28,0 276.2,52.62 383.69,157.78 107.61,105.25 161.45,231.31 161.45,378.38zm-104.02 0.87c0,-121.02 -43.66,-225.05 -130.6,-311.65 -86.95,-87.03 -190.99,-130.33 -312.26,-130.33 -117.79,0 -219.74,44.25 -306.08,133.04 -86.34,88.44 -129.73,192.11 -129.73,310.77 0,127.03 42.17,234.89 126.16,323.32 83.99,88.78 189.5,133.04 316.77,133.04 124.95,0 228.62,-44.87 311.4,-134.78 82.76,-89.66 124.33,-197.6 124.33,-323.4zm254.57 529.89l0 -1045.41 128.25 0 574.33 911.23c0,-15.59 0,-38.85 0.35,-69.96 0,-29.88 0,-52.61 0,-68.13l0 -773.14 95.04 0 0 1045.41 -127.38 0 -571.97 -907.31c0,26.31 0,63.33 0,111.16l0 796.15 -98.62 0zm-6394.17 1416.82l-130.86 0 -161.09 -419.59 -524.23 0 -161.08 419.59 -130.88 0 502.11 -1291.01 103.94 0 502.09 1291.01zm-556.11 -1097.42l-218.51 566.66 441.12 0 -218.43 -566.66 -4.18 0zm1605.09 313.82l-127.63 0c-98.02,-121.89 -215.46,-182.88 -352.08,-182.88 -121.02,0 -224.09,42.43 -308.94,127.29 -85.22,84.86 -127.65,188.28 -127.65,310.25 0,126.69 41.21,233.41 123.99,320.01 82.5,86.68 186.8,129.99 312.59,129.99 99.58,0 187.15,-30.75 263.3,-92.26 75.96,-61.6 125.55,-140.79 148.28,-237.59l-453.66 0 0 -91.48 579.11 0c-9.49,149.41 -65.08,273.48 -166.75,372.02 -101.6,98.62 -227.14,147.94 -376.55,147.94 -155.35,0 -283.25,-52.53 -383.71,-157.78 -100.35,-105.16 -150.62,-235.5 -150.62,-390.85 0,-153.08 52.61,-280.97 157.78,-383.78 105.23,-102.8 234.98,-154.21 389.08,-154.21 212.85,0 370.63,94.44 473.44,283.33zm753.11 783.6l-548.71 0 0 -1045.41 548.71 0 0 91.49 -444.7 0 0 369.4 392.68 0 0 91.4 -392.68 0 0 401.65 444.7 0 0 91.48zm186.44 0l0 -1045.41 128.24 0 574.33 911.24c0,-15.6 0,-38.86 0.35,-69.96 0,-29.89 0,-52.62 0,-68.14l0 -773.14 95.06 0 0 1045.41 -127.38 0 -571.97 -907.31c0,26.31 0,63.33 0,111.17l0 796.14 -98.63 0zm1959.86 -776.45l-123.97 0c-94.45,-125.46 -211.89,-188.28 -352.08,-188.28 -117.43,0 -218.41,43.04 -302.75,129.12 -84.51,86.08 -126.69,188.28 -126.69,306.67 0,123.11 40.95,228.88 123.11,317.31 81.9,88.52 184.1,132.69 306.32,132.69 147.33,0 264.78,-59.77 352.08,-179.3l123.97 0c-102.81,185.31 -258.76,277.93 -467.94,277.93 -156.64,0 -286.03,-52.28 -388.22,-156.82 -102.2,-104.64 -153.35,-235.85 -153.35,-393.63 0,-147.06 52.37,-273.14 156.91,-378.38 104.65,-105.16 230.46,-157.78 377.43,-157.78 213.97,0 372.36,96.89 475.17,290.47zm450.1 358.69l0 417.76 -100.38 0 0 -417.76 -338.92 -627.65 116.22 0 272.88 509.6 274.62 -509.6 116.3 0 -340.73 627.65z"/>
  <path class="fil5" d="M10061.84 2792.51c89.74,0 163.36,30.49 220.77,91.57 57.51,60.99 86.27,140.01 86.27,236.98 0,193.85 -111.36,398.6 -333.95,614.05l-129.29 -102.37c50.27,-111.35 75.35,-192.11 75.35,-242.39 0,-96.97 -53.83,-145.41 -161.53,-145.41 -107.77,0 -210.06,68.22 -307.02,204.66 -96.98,136.43 -211.01,347.45 -342.05,632.87 -131.05,285.51 -230.71,487.47 -298.93,605.96l-307.04 -134.61c197.52,-448.87 310.61,-712.76 339.36,-791.79 96.97,-280.11 145.41,-635.57 145.41,-1066.49l301.62 -80.86c-10.79,233.41 -26.91,413.93 -48.43,541.4 -21.61,127.46 -73.62,334.81 -156.22,622.07 362.69,-657.1 667.9,-985.64 915.68,-985.64zm1404.02 1303.48l118.47 134.6c-89.72,140.1 -198.38,249.62 -325.83,328.63 -127.56,78.94 -255.89,118.49 -385.18,118.49 -129.21,0 -231.59,-36.85 -307.03,-110.48 -75.37,-73.62 -113.09,-175.03 -113.09,-304.32 0,-301.63 113.09,-718.17 339.34,-1249.62 -183.12,28.75 -366.26,71.87 -549.4,129.29l-37.71 -210.06 -5.41 -5.4c179.57,-75.37 414.8,-136.44 705.62,-183.13 28.75,-53.84 93.4,-184.88 193.93,-393.19 201.09,-412.97 344.77,-680.45 430.93,-802.51l231.57 91.57c-35.88,78.94 -98.71,210.93 -188.53,395.9 -89.74,184.88 -190.28,394.06 -301.62,627.47 161.61,-10.8 289.08,-16.21 382.48,-16.21 93.3,0 165.19,14.37 215.46,43.13l0 231.57c-50.27,-10.71 -123.02,-16.12 -218.15,-16.12 -95.24,0 -264.86,16.12 -509.07,48.44 -211.81,474.04 -317.76,818.72 -317.76,1034.17 0,82.59 26.06,150.81 78.06,204.74 52.11,53.84 122.16,80.76 210.06,80.76 88,0 205.61,-59.24 352.86,-177.73z"/>
  <path class="fil5" d="M14436.01 4011.56l113.17 91.57c-61.07,150.9 -157.17,278.36 -288.2,382.48 -131.03,104.11 -249.53,156.21 -355.46,156.21 -105.95,0 -189.42,-36.85 -250.48,-110.47 -61.07,-73.62 -91.57,-169.63 -91.57,-288.12 0,-118.48 19.77,-271.13 59.23,-457.84 -168.75,265.73 -350.14,473.95 -544,624.77 -193.94,150.81 -357.3,226.26 -490.16,226.26 -201.08,0 -301.63,-143.67 -301.63,-430.92 0,-244.21 82.6,-556.55 247.78,-937.2 165.19,-380.64 285.42,-601.5 360.87,-662.5l258.5 113.09c-147.14,236.98 -258.5,470.39 -333.95,700.22 -75.36,229.83 -113.07,383.35 -113.07,460.54 0,77.19 24.22,139.14 72.75,185.83 48.42,46.62 104.97,69.96 169.62,69.96 143.67,0 322.27,-131.9 535.9,-395.89 213.72,-263.9 431.88,-657.97 654.48,-1182.28l274.7 123.89c-7.14,28.75 -88.86,236.98 -245.07,624.85 -156.23,387.8 -234.29,620.33 -234.29,697.53 0,77.18 17,135.56 51.16,175.03 34.15,39.47 68.22,59.24 102.37,59.24 34.06,0 60.11,-1.83 78.05,-5.4 17.95,-3.58 35.9,-10.72 53.84,-21.52 17.96,-10.81 33.3,-19.78 45.83,-26.93 12.54,-7.23 27.8,-19.77 45.75,-37.72l43.11 -37.72c7.16,-10.72 20.66,-27.8 40.43,-51.14 19.7,-23.35 33.2,-38.6 40.34,-45.83zm1808.01 193.93l-5.41 226.27c-82.58,3.57 -195.68,7.14 -339.34,10.71 -143.58,3.67 -243.25,6.28 -298.91,8.1 -55.69,1.83 -131.92,6.28 -228.89,13.51 -165.18,10.71 -317.83,32.32 -457.83,64.55 -176,39.56 -271.14,59.33 -285.52,59.33 -68.22,0 -137.31,-41.29 -207.36,-123.88 -70.04,-82.6 -104.97,-163.45 -104.97,-242.39 0,-150.81 538.6,-605.08 1615.8,-1362.8 -46.61,-3.58 -153.52,-5.32 -320.44,-5.32 -167.03,0 -456.96,35.89 -869.86,107.69l-32.33 -183.13c244.13,-147.24 700.22,-220.86 1368.12,-220.86 140.01,0 239.69,10.8 298.92,32.33 59.25,21.52 88.88,70.04 88.88,145.41 0,82.59 -46.71,158.04 -140.01,226.26 -18.03,14.37 -47.67,34.16 -88.96,59.25 -41.29,25.17 -115.78,75.45 -223.47,150.81 -107.77,75.45 -216.33,153.51 -325.93,234.27 -109.52,80.86 -248.65,202.05 -417.41,363.57 -168.76,161.62 -330.39,339.35 -484.76,533.29 495.55,-79.03 830.39,-118.49 1004.54,-118.49 174.16,0 325.84,7.14 455.13,21.52z"/>
 </g>
</svg>
